<svg width="240" height="240" viewBox="0 0 240 240" fill="none" xmlns="http://www.w3.org/2000/svg">
<rect width="240" height="240" fill="black"/>
<path d="M137.591 100.682C137.227 97.0151 135.667 94.1667 132.909 92.1364C130.152 90.1061 126.409 89.0909 121.682 89.0909C118.47 89.0909 115.758 89.5455 113.545 90.4545C111.333 91.3333 109.636 92.5606 108.455 94.1364C107.303 95.7121 106.727 97.5 106.727 99.5C106.667 101.167 107.015 102.621 107.773 103.864C108.561 105.106 109.636 106.182 111 107.091C112.364 107.97 113.939 108.742 115.727 109.409C117.515 110.045 119.424 110.591 121.455 111.045L129.818 113.045C133.879 113.955 137.606 115.167 141 116.682C144.394 118.197 147.333 120.061 149.818 122.273C152.303 124.485 154.227 127.091 155.591 130.091C156.985 133.091 157.697 136.53 157.727 140.409C157.697 146.106 156.242 151.045 153.364 155.227C150.515 159.379 146.394 162.606 141 164.909C135.636 167.182 129.167 168.318 121.591 168.318C114.076 168.318 107.53 167.167 101.955 164.864C96.4091 162.561 92.0758 159.152 88.9545 154.636C85.8636 150.091 84.2424 144.47 84.0909 137.773H103.136C103.348 140.894 104.242 143.5 105.818 145.591C107.424 147.652 109.561 149.212 112.227 150.273C114.924 151.303 117.97 151.818 121.364 151.818C124.697 151.818 127.591 151.333 130.045 150.364C132.53 149.394 134.455 148.045 135.818 146.318C137.182 144.591 137.864 142.606 137.864 140.364C137.864 138.273 137.242 136.515 136 135.091C134.788 133.667 133 132.455 130.636 131.455C128.303 130.455 125.439 129.545 122.045 128.727L111.909 126.182C104.061 124.273 97.8636 121.288 93.3182 117.227C88.7727 113.167 86.5152 107.697 86.5455 100.818C86.5152 95.1818 88.0152 90.2576 91.0455 86.0455C94.1061 81.8333 98.303 78.5455 103.636 76.1818C108.97 73.8182 115.03 72.6364 121.818 72.6364C128.727 72.6364 134.758 73.8182 139.909 76.1818C145.091 78.5455 149.121 81.8333 152 86.0455C154.879 90.2576 156.364 95.1364 156.455 100.682H137.591Z" fill="#FFB400"/>
</svg>
